<svg id="Capa_1" enable-background="new 0 0 512 512" height="512" viewBox="0 0 512 512" width="512" xmlns="http://www.w3.org/2000/svg"><g><path d="m510.315 170.526-32.457-103.862c-12.46-39.873-48.899-66.664-90.675-66.664h-61.184c-2.801 0-5.546.784-7.924 2.264-13.004 8.091-34.33 17.736-62.075 17.736-15.315 0-38.516-3.077-62.075-17.736-2.378-1.48-5.123-2.264-7.924-2.264h-61.184c-41.776 0-78.215 26.791-90.675 66.664l-32.457 103.862c-2.271 7.27 1.265 15.088 8.225 18.181l81.091 36.041v272.252c0 8.284 6.716 15 15 15h299.997c8.284 0 15-6.716 15-15v-272.252l81.091-36.041c6.96-3.093 10.497-10.912 8.226-18.181zm-254.315-120.526c12.641 0 24.215-1.599 34.619-4.117l-34.619 59.347-34.624-59.357c13.198 3.177 25.122 4.127 34.624 4.127zm164.998 141.919v-36.919c0-8.284-6.716-15-15-15s-15 6.716-15 15v327h-269.997v-327c0-8.284-6.716-15-15-15s-15 6.716-15 15v36.919l-56.696-25.199 28.471-91.107c8.525-27.283 33.458-45.613 62.041-45.613h52.569l65.658 112.558c2.688 4.609 7.621 7.442 12.956 7.442s10.268-2.833 12.957-7.442l65.658-112.558h52.568c28.584 0 53.515 18.33 62.04 45.612l28.471 91.107z"/><path d="m256 190c-35.841 0-64.999 29.159-64.999 65 0 30.678 21.369 56.442 50 63.234v41.766h-15c-8.284 0-15 6.716-15 15s6.716 15 15 15h15v15c0 8.284 6.716 15 15 15s15-6.716 15-15v-15h15c8.284 0 15-6.716 15-15s-6.716-15-15-15h-15v-41.766c28.63-6.792 49.999-32.556 49.999-63.234-.001-35.841-29.159-65-65-65zm0 100c-19.299 0-35-15.701-35-35s15.701-35 35-35 35 15.701 35 35-15.701 35-35 35z"/></g></svg>